<svg xmlns="http://www.w3.org/2000/svg" xmlns:xlink="http://www.w3.org/1999/xlink" viewBox="0 0 139.22 194.93"><defs><linearGradient id="Sfumatura_senza_nome_36" x1="126.64" y1="81.66" x2="123.17" y2="93.56" gradientUnits="userSpaceOnUse"><stop offset="0" stop-color="#fff"/><stop offset="1" stop-color="#3c3c3b"/></linearGradient><linearGradient id="Sfumatura_senza_nome_36-2" x1="42.51" y1="40.2" x2="33.84" y2="68.39" xlink:href="#Sfumatura_senza_nome_36"/></defs><title>difensore</title><g id="Livello_2" data-name="Livello 2"><g id="ico_portiere" data-name="ico portiere"><path d="M138.57,91.86c-.54,5.06-3.79,5.88-7.18,5.2C129,96.57,112,91.78,112,91.78l1-3.92.59-13.28s18.12,8.7,20.64,10.07S139,88,138.57,91.86Z" style="fill:url(#Sfumatura_senza_nome_36)"/><path d="M139.17,91.92a8.13,8.13,0,0,1-1.31,3.87,5.15,5.15,0,0,1-3.65,2,10.77,10.77,0,0,1-4-.39l-3.7-1c-4.91-1.31-9.8-2.67-14.69-4h0a.7.7,0,0,1-.49-.86l1.08-3.91,0,.14.71-13.28h0a.55.55,0,0,1,.58-.52.56.56,0,0,1,.21.05l14.4,7,3.6,1.75,1.8.87a14.52,14.52,0,0,1,1.8,1,8.23,8.23,0,0,1,3,3A7.3,7.3,0,0,1,139.17,91.92ZM138,91.8a6.1,6.1,0,0,0-.58-3.54,7.05,7.05,0,0,0-2.55-2.6,14,14,0,0,0-1.72-.93l-1.79-.88-3.59-1.76-14.34-7,.79-.47h0l-.47,13.29a.63.63,0,0,1,0,.13h0l-1,3.93-.49-.86h0c4.88,1.39,9.76,2.78,14.65,4.12l3.66,1a9.55,9.55,0,0,0,3.53.39,3.89,3.89,0,0,0,2.81-1.53A7,7,0,0,0,138,91.8Z" style="fill:#3c3c3b"/><path d="M113.24,92.33c.75-5.24,1.08-37.42-1.16-41.41-1.4-2.49-9.33-7.47-15.89-11.16a21.07,21.07,0,1,0-23.75.19c-3,2.53-8.14,2.65-14.19,7.94-5,4.37-1.37,37.79.62,46.77,3.24,4.24,10.23,32.18,10.23,34.92s2.08,30.93,2.08,30.93c0-.46-10.83,4.84-11.06,6.24-.13.78-.5,20.89-.5,22.95,0,3.49,1.75,4.24,1.75,4.24H97.28s10.14-5.9,10.14-7.15.91-24.53-.83-25.78S99,159.76,99,159.76s.75-19.46.75-27.44S112.49,97.56,113.24,92.33Z" style="fill:#c6c6c6"/><path d="M87.3,46.43c-8.4-2.49-9.4-5.24-11-6.71-22.62-26.52,16-37.29,8.92-37.48C73.4,1.92,63.48,10.05,63.48,21.69a23.78,23.78,0,0,0,9,18.25C70.27,43.6,64.86,43,58.8,48.32c-5,4.37-1.8,37.35.19,46.33,3.24,4.24,10.23,32.18,10.23,34.92s2.86,31.51,2.86,31.51c0-.46-11.54,5.28-11.54,5.28-.13.78-.94,21.27-.94,23.32a4.09,4.09,0,0,0,3.18,4.12h9.42s-11.68-22.32-5.78-27.15c1.66-1.36,7.09-5,7.09-5s7.85-21.7,6.46-29.56C77.49,117.93,87.8,93,89.63,70.37,90,65.82,88.36,46.74,87.3,46.43Z" style="fill:#9d9d9c"/><path d="M65.16,16.08c.49-.67-.62,4.43.6,8.81C66.9,29,72.42,39,74.5,40c-1.08,1.5-5.4,4.12-7.19,3.53C66,43.1,75,40.4,69.67,38c-1.2-.53-6.49-9.31-6.24-11.47S64.08,17.58,65.16,16.08Z" style="fill:#706f6f"/><path d="M105.95,161.44s-5.3,5.92-7.92,6.67-32.86.06-33.8-.12,7-6.3,9-6.49c.4,0-4.57,3.53-2.31,3.43,5-.23,17.86,0,24.32,0C100.1,165,105.37,160.89,105.95,161.44Z" style="fill:#9d9d9c"/><path d="M60.86,167.05c.19,1.81.94,17.65,2.87,22,1.22,2.75,3.62,4.43,7.3,4.18-2.24.69-8.23.56-8.23.56s-1.93-.06-2.49-1-.56-4.49-.5-5.43S60.71,165.61,60.86,167.05Z" style="fill:#706f6f"/><path d="M57,61.35c1.19-3.86,22.77-.62,25.71,1.88,2.71,13.46-7.36,22.09-9.95,30.92C68.39,109,76.33,130.24,76.16,133c-.26,4.24-2.08,26.77-3.45,27.9-2.06.81-2.31-5.3-2.43-9.29s-1.12-17.52-1.81-23.32-7.11-31.55-9.6-33.61C58.24,91.54,56.18,64,57,61.35Z" style="fill:#706f6f"/><path d="M67.06,163.49c-1.54.92-5.28,3.33.7,3.5s26,1.33,28.52,1-9.06.42-14.38.42-18.19.1-20.9-1.36c.36-1.8,1.69-2.3,2.77-2.71A26.32,26.32,0,0,1,67.06,163.49Z" style="fill:#706f6f"/><path d="M112.46,92.21c.23-2.43.29-5,.3-7.54s0-5.08-.13-7.61c-.18-5.07-.41-10.15-.83-15.18-.17-2.51-.4-5-.72-7.43-.09-.59-.19-1.19-.32-1.72-.06-.29-.14-.49-.2-.72a1.48,1.48,0,0,1-.08-.19c0-.06-.09-.14-.13-.21a7.85,7.85,0,0,0-1-1.12c-.42-.39-.88-.78-1.34-1.16-3.81-3.08-8-5.93-12.06-9.11h0l0,0a.56.56,0,0,1-.1-.79l.1-.1a20.8,20.8,0,0,0,7.36-10.36,20.07,20.07,0,0,0,1-6.28,21.79,21.79,0,0,0-1-6.23,20.36,20.36,0,0,0-7.36-10,20,20,0,0,0-5.58-2.81A21.42,21.42,0,0,0,84,2.74a19.7,19.7,0,0,0-11.69,3.9A19.27,19.27,0,0,0,68,11.11a22.09,22.09,0,0,0-2.8,5.61,20.16,20.16,0,0,0,.12,12.48,20.7,20.7,0,0,0,7.49,10.21h0a.64.64,0,0,1,.16.89l-.06.08,0,0a13.28,13.28,0,0,1-3.5,2.37c-1.22.6-2.41,1.15-3.55,1.74a29.59,29.59,0,0,0-6.27,4.23,3.36,3.36,0,0,0-.32.29,1.4,1.4,0,0,1-.16.19,4.8,4.8,0,0,0-.34.59,9.45,9.45,0,0,0-.53,1.6,24.62,24.62,0,0,0-.57,3.7,71.62,71.62,0,0,0-.22,7.79c.12,5.24.44,10.51,1,15.76s1.09,10.54,2,15.61v0l-.28-.61.67,1.09c.22.37.34.69.51,1,.34.69.6,1.36.86,2,.53,1.35,1,2.7,1.44,4.05.9,2.7,1.69,5.42,2.46,8.14,1.51,5.46,2.93,10.9,4.08,16.49.15.71.27,1.4.38,2.19.12,1,.07,1.45.12,2.21l.22,4.19.51,8.41,1.09,16.83v0l-2.55.14a1.26,1.26,0,0,0,.46.92,1.18,1.18,0,0,0,.44.23l.16,0h.28l-.23.07-.54.2-1.13.46c-.76.32-1.52.67-2.27,1a46,46,0,0,0-4.39,2.33c-.35.21-.69.43-1,.66-.16.11-.3.23-.43.34A2.75,2.75,0,0,0,61,167a.54.54,0,0,0,0-.12s0,.05,0,.07l0,.25,0,.62-.07,1.26c-.09,1.68-.14,3.37-.2,5.06l-.31,10.14c0,1.69-.06,3.38,0,5.06a7.3,7.3,0,0,0,.34,2.26,3.44,3.44,0,0,0,.48.89,1.38,1.38,0,0,0,.59.49h0l-.39-.08c3,.13,6,.21,9,.26s6,.07,9,.1,6,0,9,0,6-.14,9-.32h0l-.5.14a26.2,26.2,0,0,0,5.17-2.54,33.4,33.4,0,0,0,4.57-3.34,2.3,2.3,0,0,0,.37-.43s0-.06,0,0,0,0,0-.09v-.37l0-1.44,0-2.88,0-5.76c-.05-3.83-.13-7.69-.5-11.45a15.33,15.33,0,0,0-.46-2.66l-.09-.26a.92.92,0,0,1-.06-.11.19.19,0,0,0,.09.1l-.05,0a2.1,2.1,0,0,0-.21-.1,6.5,6.5,0,0,0-1.17-.32,26.31,26.31,0,0,0-5.49-.31h0a1.27,1.27,0,0,1-1.31-1.22v-.14c.13-5.8.32-11.6.5-17.4l.27-8.7A21.35,21.35,0,0,1,99,129c.14-.76.35-1.46.55-2.18s.4-1.43.63-2.13c1.77-5.62,4.09-11,6.27-16.36,1.1-2.69,2.25-5.36,3.28-8.07.53-1.35,1-2.7,1.53-4.06.24-.68.49-1.36.69-2A17.33,17.33,0,0,0,112.46,92.21Zm1.56.22a18.32,18.32,0,0,1-.58,2.23c-.21.72-.46,1.41-.71,2.1-.49,1.38-1,2.74-1.54,4.1L108.07,109c-2.06,5.42-4.07,10.89-5.69,16.39q-.32,1-.56,2.06c-.17.69-.36,1.38-.46,2.06a13,13,0,0,0-.28,2c-.06.62-.08,1.35-.09,2.08l-.2,8.73c-.13,5.82-.26,11.64-.45,17.47L99,158.44h0a32.62,32.62,0,0,1,6,.8,8.38,8.38,0,0,1,1.57.57,4.17,4.17,0,0,1,.42.25,1.27,1.27,0,0,1,.24.17,2.55,2.55,0,0,1,.32.37,4,4,0,0,1,.25.54l.12.43a20.57,20.57,0,0,1,.36,3c.2,3.91.08,7.75,0,11.61l-.17,5.77-.11,2.88-.06,1.44v.35a1.21,1.21,0,0,1-.16.59,3.12,3.12,0,0,1-.57.66,43,43,0,0,1-4.78,3.39,41.51,41.51,0,0,0-4.67,3.48.55.55,0,0,1-.39.14h-.14c-3-.18-6-.25-9-.32s-6-.08-9,0-6,0-9,.1-6,.13-9,.26a.83.83,0,0,1-.39-.08l-.08,0a3.58,3.58,0,0,1-1.21-1.26,5.21,5.21,0,0,1-.57-1.41,9.14,9.14,0,0,1-.25-2.76c.07-1.7.1-3.39.13-5.08l.09-10.15.05-5.08v-1.92l0-.38a1.73,1.73,0,0,1,0-.24,1.46,1.46,0,0,1,.16-.42,3.07,3.07,0,0,1,.6-.72c.19-.17.37-.32.55-.47.36-.28.73-.54,1.09-.78,1.46-1,2.94-1.82,4.44-2.65.75-.41,1.51-.82,2.28-1.2.39-.19.78-.38,1.18-.57l.63-.27.37-.14.27-.07a1.7,1.7,0,0,1,.28,0h.25l.18,0a1.38,1.38,0,0,1,.47.24,1.35,1.35,0,0,1,.48,1v.06a1.28,1.28,0,0,1-2.55.08v0l-1.33-16.83-.63-8.42-.28-4.23c-.05-.65-.05-1.61-.12-2-.09-.6-.21-1.29-.35-2-1.14-5.42-2.57-10.87-4.08-16.24-.77-2.69-1.56-5.37-2.45-8-.44-1.32-.9-2.63-1.4-3.89-.25-.63-.5-1.27-.79-1.84-.14-.28-.27-.62-.42-.85l-.43-.71-.12-.19a1.43,1.43,0,0,1-.17-.42v0c-.63-2.68-1-5.32-1.43-8s-.71-5.31-1-8c-.5-5.33-.91-10.67-.88-16.07a74.71,74.71,0,0,1,.39-8.14,27.58,27.58,0,0,1,.73-4.15A12.34,12.34,0,0,1,56,48.51a7.46,7.46,0,0,1,.68-1.12c.16-.19.33-.38.51-.56a4.44,4.44,0,0,1,.43-.36,26,26,0,0,1,7.19-4.21c1.28-.51,2.57-.91,3.81-1.32A14.54,14.54,0,0,0,72,39.46l.06,1h0A21.67,21.67,0,0,1,63.4,29.87,22.29,22.29,0,0,1,62.84,16,22,22,0,0,1,70.77,4.54,22.39,22.39,0,0,1,84,0a23.93,23.93,0,0,1,7,1.11,22.58,22.58,0,0,1,6.29,3.26,21.28,21.28,0,0,1,5,5,21.71,21.71,0,0,1,3.11,6.33,24,24,0,0,1,.92,7A21.41,21.41,0,0,1,96.5,40.2l0-.93h0a61,61,0,0,1,13.69,7.28c.53.41,1.06.83,1.59,1.29a11.17,11.17,0,0,1,1.58,1.65,7,7,0,0,1,.39.59c.11.23.22.47.3.69a11.15,11.15,0,0,1,.31,1.12c.17.71.27,1.38.36,2a73,73,0,0,1,.55,7.78c.07,5.14,0,10.25-.27,15.36l-.37,7.66C114.42,87.29,114.37,89.81,114,92.44Z" style="fill:#3c3c3b"/><path d="M81.25,70.28c-1.08,10.3-11.38,10.3-17.34,8.49S.32,60.43.32,60.43v-40S63.2,50.56,69.69,53.66C77.28,57.27,82.28,60.57,81.25,70.28Z" style="fill:url(#Sfumatura_senza_nome_36-2)"/><path d="M82.82,69.88a13.11,13.11,0,0,1-2,5.81,10.4,10.4,0,0,1-5,3.81,16,16,0,0,1-5.94.95,22.77,22.77,0,0,1-5.81-.88c-7.13-2.09-14.21-4.11-21.29-6.26L21.54,66.93C14.49,64.74,7.41,62.61.36,60.37h0A.5.5,0,0,1,0,59.89v-40a.5.5,0,0,1,.5-.5.51.51,0,0,1,.22,0h0c7.53,3.38,15,6.87,22.52,10.31L45.68,40.2c7.49,3.47,14.92,7.06,22.39,10.59,3.66,1.8,7.68,3.37,11,6.53a13,13,0,0,1,3.42,5.92A19.61,19.61,0,0,1,82.82,69.88ZM80,69.59a16.91,16.91,0,0,0-.25-5.67,10.22,10.22,0,0,0-2.67-4.68c-2.68-2.63-6.5-4.25-10.2-6.07C59.51,49.56,52.05,46,44.65,42.35L22.43,31.42C15,27.72,7.64,24.07.28,20.32h0L1,19.87v40l-.36-.48h0c7.16,1.85,14.29,3.82,21.43,5.72L43.45,71c7.13,1.94,14.25,4,21.33,6A16.74,16.74,0,0,0,74.84,77a7.65,7.65,0,0,0,3.67-2.84A10.36,10.36,0,0,0,80,69.59Z" style="fill:#3c3c3b"/></g></g></svg>