<?xml version="1.0" encoding="iso-8859-1"?>
<!-- Generator: Adobe Illustrator 18.1.1, SVG Export Plug-In . SVG Version: 6.00 Build 0)  -->
<svg version="1.1" id="Capa_1" xmlns="http://www.w3.org/2000/svg" xmlns:xlink="http://www.w3.org/1999/xlink" x="0px" y="0px"
	 viewBox="0 0 25.523 25.523" style="enable-background:new 0 0 25.523 25.523;" xml:space="preserve">
<g>
	<g>
		<path style="fill:#030104;" d="M22.6,2.681c-1.317,3.801-5.646-0.438-8.732-0.727c-7.882-0.736-10.872,8.307-2.549,10.188
			c-4.004,1.929-7.001-3.421-6.187-6.913c1.342-5.767,12.392-4.333,15.646-1.456C21.717,3.946,22.32,1.964,22.6,2.681z"/>
		<path style="fill:#030104;" d="M24.78,1.226c0.791,0.667,0.766,2.145,0.729,3.638c-1.499,2.747-5.056,3.431-7.274,5.458
			c-0.707,5.431,2.714,6.746,2.545,11.643c-1.115,1.189-2.665,1.944-5.093,1.82c1.3-1.002,3.312-1.297,4.364-2.549
			c-1.012-4.479-4.717-8.396-2.181-12.007c0.723-1.035,2.871-1.133,3.996-1.819C24.082,6.073,25.568,4.607,24.78,1.226z"/>
		<path style="fill:#030104;" d="M3.681,9.594c0.927-0.015,0.439,0.272,0.361,0.729c-1.696,2.595-3.541,5.17-2.913,8.368
			c0.862,4.374,6.438,4.589,11.648,4.732c-0.606,1.277-2.935,0.8-4.371,0.726c-4.82-0.249-8.867-1.94-8.363-7.642
			C0.29,13.617,2.106,11.874,3.681,9.594z"/>
		<path style="fill:#030104;" d="M15.322,18.327c0.339,1.25-0.095,3.733-0.362,5.458c-0.464-3.079,0.507-6.305-4.366-5.458
			C10.138,17.65,14.523,17.887,15.322,18.327z"/>
	</g>
</g>
<g>
</g>
<g>
</g>
<g>
</g>
<g>
</g>
<g>
</g>
<g>
</g>
<g>
</g>
<g>
</g>
<g>
</g>
<g>
</g>
<g>
</g>
<g>
</g>
<g>
</g>
<g>
</g>
<g>
</g>
</svg>
