<svg xmlns="http://www.w3.org/2000/svg" xmlns:xlink="http://www.w3.org/1999/xlink" viewBox="0 0 130.95 195.37"><defs><linearGradient id="Sfumatura_senza_nome_306" x1="118.39" y1="85.69" x2="114.06" y2="95.92" gradientUnits="userSpaceOnUse"><stop offset="0.05" stop-color="#fff"/><stop offset="0.96" stop-color="#3c3c3b"/></linearGradient><linearGradient id="Sfumatura_senza_nome_171" x1="91.55" y1="69.44" x2="84.42" y2="87.35" gradientUnits="userSpaceOnUse"><stop offset="0.16" stop-color="#fff"/><stop offset="1" stop-color="#3c3c3b"/></linearGradient><linearGradient id="Sfumatura_senza_nome_36" x1="27.25" y1="43.12" x2="16.08" y2="66.79" gradientUnits="userSpaceOnUse"><stop offset="0" stop-color="#fff"/><stop offset="1" stop-color="#3c3c3b"/></linearGradient></defs><title>attaccante</title><g id="Livello_2" data-name="Livello 2"><g id="ico_attaccanti" data-name="ico attaccanti"><path d="M130,104.87c.37-2.57.53-18.39-.57-20.35-.69-1.22-4.59-3.67-7.81-5.49a10.36,10.36,0,1,0-11.68.09c-1.46,1.24-4,1.3-7,3.9-2.45,2.15-.67,18.58.31,23,1.59,2.08,5,15.82,5,17.17s1,15.2,1,15.2c0-.23-5.32,2.38-5.44,3.07-.06.38-.25,10.27-.25,11.28,0,1.72.86,2.08.86,2.08h17.66s5-2.9,5-3.51.45-12.06-.41-12.67S123,138,123,138s.37-9.56.37-13.49S129.59,107.45,130,104.87Z" style="fill:#c6c6c6"/><path d="M122.08,84.68A34.63,34.63,0,0,1,111.81,79c-11.12-13,7.87-18.33,4.38-18.42-5.82-.15-10.7,3.84-10.7,9.56a11.69,11.69,0,0,0,4.4,9c-1.06,1.8-3.73,1.51-6.7,4.12-2.45,2.15-.89,18.36.1,22.78,1.59,2.08,5,15.82,5,17.17s1.41,15.49,1.41,15.49c0-.23-5.67,2.6-5.67,2.6-.06.38-.46,10.45-.46,11.46a2,2,0,0,0,1.56,2h4.63s-5.74-11-2.84-13.34c.82-.67,3.48-2.47,3.48-2.47s3.86-10.67,3.18-14.53c-1.23-6.95,6.63-18.61,7.53-29.73C121.32,92.44,122.6,84.84,122.08,84.68Z" style="fill:#9d9d9c"/><path d="M106.33,67.4c.24-.33-.31,2.18.3,4.33.56,2,3.27,7,4.29,7.42-.53.74-2.66,2-3.54,1.74-.63-.21,3.78-1.53,1.16-2.7-.59-.26-3.19-4.58-3.07-5.64S105.8,68.13,106.33,67.4Z" style="fill:#706f6f"/><path d="M126.37,138.85s-2.61,2.91-3.89,3.28-16.15,0-16.61-.06,3.46-3.1,4.41-3.19c.2,0-2.25,1.74-1.13,1.69,2.44-.11,8.78,0,12,0C123.5,140.57,126.09,138.58,126.37,138.85Z" style="fill:#9d9d9c"/><path d="M104.21,141.61c.09.89.46,8.67,1.41,10.82a3.37,3.37,0,0,0,3.59,2.05,20.13,20.13,0,0,1-4,.28s-1,0-1.23-.49a7.89,7.89,0,0,1-.25-2.67C103.72,151.14,104.14,140.9,104.21,141.61Z" style="fill:#706f6f"/><path d="M102.31,89.65c.59-1.9,16.7.62,18.14,1.84-.94,7.5-5,10.53-6.31,14.88-2.14,7.31-2.33,17.14-2.41,18.49-.13,2.08-1,13.16-1.7,13.71-1,.4-1.13-2.61-1.2-4.57s-.55-8.61-.89-11.46S104.46,107,103.23,106C102.92,104.49,101.91,90.94,102.31,89.65Z" style="fill:#706f6f"/><path d="M107.26,139.86c-.76.45-2.6,1.64.35,1.72s12.79.65,14,.49-4.45.2-7.07.2-8.94.05-10.27-.67a1.78,1.78,0,0,1,1.36-1.33A12.94,12.94,0,0,1,107.26,139.86Z" style="fill:#706f6f"/><path d="M129.58,104.82c.12-1.19.14-2.46.15-3.7s0-2.5-.06-3.74c-.09-2.49-.2-5-.41-7.46-.08-1.23-.2-2.47-.36-3.65,0-.29-.09-.59-.15-.84s-.07-.24-.1-.35l0-.09-.07-.1a3.86,3.86,0,0,0-.51-.55c-.21-.19-.43-.38-.66-.57-1.87-1.51-4-2.91-5.93-4.48h0l0,0a.28.28,0,0,1-.05-.39l.05-.05A10.22,10.22,0,0,0,125,73.72a9.87,9.87,0,0,0,.47-3.09,10.71,10.71,0,0,0-.51-3.06,10,10,0,0,0-3.62-4.9,9.81,9.81,0,0,0-2.74-1.38,10.53,10.53,0,0,0-3-.44,9.69,9.69,0,0,0-5.75,1.92A9.47,9.47,0,0,0,107.7,65a10.86,10.86,0,0,0-1.38,2.76,9.91,9.91,0,0,0,.06,6.13,10.17,10.17,0,0,0,3.68,5h0a.32.32,0,0,1,.08.44l0,0,0,0a6.53,6.53,0,0,1-1.72,1.16c-.6.3-1.18.57-1.75.86a14.55,14.55,0,0,0-3.08,2.08,1.65,1.65,0,0,0-.16.14l-.08.09a2.36,2.36,0,0,0-.16.29,4.64,4.64,0,0,0-.26.79,12.1,12.1,0,0,0-.28,1.82,35.2,35.2,0,0,0-.11,3.83c.06,2.57.22,5.17.47,7.75s.54,5.18,1,7.67h0l-.14-.3.33.54c.11.18.17.34.25.51.17.34.29.67.42,1,.26.66.49,1.33.71,2,.44,1.33.83,2.66,1.21,4,.74,2.68,1.44,5.36,2,8.11.07.35.13.69.19,1.08s0,.71.06,1.09l.11,2.06.25,4.14.53,8.27h0l-1.25.07a.62.62,0,0,0,.23.45.58.58,0,0,0,.21.11l.08,0h.14l-.11,0-.27.1-.56.23-1.12.5A22.6,22.6,0,0,0,105.1,141l-.49.32-.21.17-.12.11a.26.26,0,0,0,0-.06s0,0,0,0v.12l0,.31,0,.62c0,.83-.07,1.66-.1,2.49l-.15,5c0,.83,0,1.66,0,2.49a3.59,3.59,0,0,0,.17,1.11,1.69,1.69,0,0,0,.24.44.68.68,0,0,0,.29.24h0l-.19,0c1.47.06,2.94.1,4.41.13s2.94,0,4.41,0,2.94,0,4.41,0,2.94-.07,4.41-.16h0l-.25.07a12.88,12.88,0,0,0,2.54-1.25,16.42,16.42,0,0,0,2.25-1.64,1.13,1.13,0,0,0,.18-.21s0,0,0,0,0,0,0,0v-.89l0-1.42v-2.83c0-1.88-.07-3.78-.25-5.63a7.54,7.54,0,0,0-.23-1.31l0-.13,0-.05a.09.09,0,0,0,0,0h0l-.1-.05a3.2,3.2,0,0,0-.57-.16,12.93,12.93,0,0,0-2.7-.15h0a.62.62,0,0,1-.65-.6V138c.06-2.85.15-5.7.25-8.55l.13-4.28a10.5,10.5,0,0,1,.25-2.24c.07-.37.17-.72.27-1.07s.2-.7.31-1c.87-2.76,2-5.39,3.08-8,.54-1.32,1.11-2.64,1.61-4,.26-.66.51-1.33.75-2,.12-.33.24-.67.34-1A8.52,8.52,0,0,0,129.58,104.82Zm.77.11a9,9,0,0,1-.28,1.1c-.1.35-.23.69-.35,1-.24.68-.5,1.35-.76,2l-1.54,4c-1,2.67-2,5.35-2.8,8.05q-.16.51-.27,1c-.08.34-.18.68-.23,1a6.38,6.38,0,0,0-.14,1c0,.3,0,.66,0,1l-.1,4.29c-.06,2.86-.13,5.72-.22,8.58l-.65-.67h0a16,16,0,0,1,2.94.39,4.12,4.12,0,0,1,.77.28l.21.12a.62.62,0,0,1,.12.09,1.25,1.25,0,0,1,.16.18,1.94,1.94,0,0,1,.12.26l.06.21a10.11,10.11,0,0,1,.18,1.49c.1,1.92,0,3.81,0,5.71l-.08,2.84-.05,1.42,0,.71v.17a.59.59,0,0,1-.08.29,1.54,1.54,0,0,1-.28.32,21.12,21.12,0,0,1-2.35,1.67,20.4,20.4,0,0,0-2.29,1.71.27.27,0,0,1-.19.07h-.07c-1.47-.09-2.94-.12-4.41-.16s-2.94,0-4.41,0-2.94,0-4.41,0-2.94.06-4.41.13a.41.41,0,0,1-.19,0l0,0a1.76,1.76,0,0,1-.6-.62,2.56,2.56,0,0,1-.28-.69,4.49,4.49,0,0,1-.12-1.36c0-.84.05-1.66.06-2.5l0-5,0-2.5v-1.13a.85.85,0,0,1,0-.12.72.72,0,0,1,.08-.2,1.51,1.51,0,0,1,.29-.35l.27-.23c.18-.14.36-.26.54-.38.72-.47,1.45-.89,2.18-1.3l1.12-.59.58-.28.31-.13.18-.07.13,0,.14,0h.12l.09,0a.68.68,0,0,1,.23.12.66.66,0,0,1,.24.47v0a.63.63,0,0,1-1.25,0h0l-.65-8.27-.31-4.14-.14-2.08c0-.32,0-.79-.06-1s-.1-.63-.17-1c-.56-2.66-1.26-5.34-2-8-.38-1.32-.77-2.64-1.2-3.93-.21-.65-.44-1.29-.69-1.91-.12-.31-.25-.62-.39-.91s-.13-.31-.21-.42l-.21-.35-.06-.1a.7.7,0,0,1-.08-.21h0c-.31-1.32-.51-2.62-.7-3.92s-.35-2.61-.47-3.92c-.25-2.62-.44-5.25-.43-7.9a36.72,36.72,0,0,1,.19-4,13.56,13.56,0,0,1,.36-2,6.07,6.07,0,0,1,.38-1.06,3.67,3.67,0,0,1,.33-.55l.25-.27a2.18,2.18,0,0,1,.21-.18,12.78,12.78,0,0,1,3.54-2.07c.63-.25,1.26-.45,1.87-.65a7.15,7.15,0,0,0,1.69-.73l0,.5h0a10.65,10.65,0,0,1-4.26-5.2,11,11,0,0,1-.27-6.81,10.8,10.8,0,0,1,3.9-5.64,11,11,0,0,1,6.51-2.23A11.76,11.76,0,0,1,119,60a11.1,11.1,0,0,1,3.09,1.6,10.46,10.46,0,0,1,2.44,2.47,10.67,10.67,0,0,1,1.53,3.11,11.8,11.8,0,0,1,.45,3.42,10.52,10.52,0,0,1-4.82,8.61l0-.46h0a30,30,0,0,1,6.73,3.58c.26.2.52.41.78.63a5.49,5.49,0,0,1,.78.81,3.44,3.44,0,0,1,.19.29c.05.11.11.23.15.34a5.48,5.48,0,0,1,.15.55c.08.35.13.68.18,1a35.86,35.86,0,0,1,.27,3.83c0,2.53,0,5-.13,7.55l-.18,3.76C130.54,102.4,130.51,103.64,130.34,104.93Z" style="fill:#3c3c3b"/><path d="M122.89,91.94c-.5,4.67-4.12,5.84-6.37,5.51a13.83,13.83,0,0,1-4-1.25l.08-14.58s4,2.41,6.33,3.67S123.27,88.38,122.89,91.94Z" style="fill:url(#Sfumatura_senza_nome_306)"/><path d="M123.4,92a8,8,0,0,1-1.08,3.51,5.49,5.49,0,0,1-3,2.35,6.42,6.42,0,0,1-1.89.33,6.67,6.67,0,0,1-1.85-.25,12.23,12.23,0,0,1-3.3-1.34h0a.45.45,0,0,1-.23-.4l.07-14.58h0a.46.46,0,0,1,.69-.4h0l3.36,2,3.4,1.94a8,8,0,0,1,3,2.8A6.69,6.69,0,0,1,123.4,92Zm-1-.11a5.68,5.68,0,0,0-.61-3.48,7.09,7.09,0,0,0-2.64-2.48l-3.37-2L112.36,82l.7-.39h0L113,96.2l-.24-.4h0a17.11,17.11,0,0,0,3.15.88,7.34,7.34,0,0,0,1.54.13,5.29,5.29,0,0,0,3.84-2A5.92,5.92,0,0,0,122.38,91.89Z" style="fill:#3c3c3b"/><path d="M113.23,100.95c.49-3.4.7-24.32-.76-26.91-.91-1.62-6.06-4.85-10.33-7.26a13.69,13.69,0,1,0-15.44.12c-1.93,1.65-5.29,1.72-9.22,5.16-3.24,2.84-.89,24.56.41,30.39,2.11,2.76,6.65,20.91,6.65,22.69s1.35,20.1,1.35,20.1c0-.3-7,3.14-7.19,4.05-.08.51-.32,13.58-.32,14.91,0,2.27,1.13,2.76,1.13,2.76h23.34s6.59-3.84,6.59-4.65.59-15.94-.54-16.75-4.92-.81-4.92-.81.49-12.64.49-17.83S112.75,104.35,113.23,100.95Z" style="fill:#c6c6c6"/><path d="M99.76,71.49c-5.46-1.62-9.5-3.77-10.52-4.73C74.54,49.52,99.65,42.52,95,42.4c-7.7-.2-14.14,5.08-14.14,12.64a15.45,15.45,0,0,0,5.82,11.86c-1.4,2.38-4.93,2-8.86,5.45-3.24,2.84-1.17,24.28.13,30.11,2.11,2.76,6.65,20.91,6.65,22.69s1.86,20.48,1.86,20.48c0-.3-7.5,3.43-7.5,3.43-.08.51-.61,13.82-.61,15.16a2.66,2.66,0,0,0,2.07,2.67h6.12S79,152.39,82.81,149.26c1.08-.88,4.61-3.27,4.61-3.27s5.1-14.1,4.2-19.21c-1.62-9.19,9.21-25.84,10.4-40.54C102.25,83.28,100.45,71.7,99.76,71.49Z" style="fill:#9d9d9c"/><path d="M82,51.4c.32-.44-.41,2.88.39,5.73.74,2.65,4.32,9.19,5.67,9.81-.7,1-3.51,2.67-4.67,2.3-.84-.27,5-2,1.54-3.57-.78-.35-4.21-6.05-4.05-7.46S81.28,52.37,82,51.4Z" style="fill:#706f6f"/><path d="M108.49,145.87s-3.44,3.85-5.15,4.34-21.36,0-22-.08S86,146,87.21,145.91c.26,0-3,2.3-1.5,2.23,3.23-.15,11.61,0,15.81,0C104.69,148.15,108.12,145.51,108.49,145.87Z" style="fill:#9d9d9c"/><path d="M79.19,149.51c.12,1.18.61,11.47,1.86,14.31a4.46,4.46,0,0,0,4.74,2.72,26.61,26.61,0,0,1-5.35.36s-1.26,0-1.62-.65a10.43,10.43,0,0,1-.32-3.53C78.54,162.12,79.09,148.57,79.19,149.51Z" style="fill:#706f6f"/><path d="M76.68,80.82c.78-2.51,21.68-.33,23.59,1.3-1.75,10.63-7.94,13.51-9.63,19.25-2.83,9.67-1.4,24.22-1.51,26-.17,2.76-1.35,17.4-2.24,18.13-1.34.53-1.5-3.44-1.58-6s-.73-11.39-1.18-15.16-4.62-20.51-6.24-21.84C77.49,100.44,76.15,82.52,76.68,80.82Z" style="fill:#706f6f"/><path d="M83.22,147.2c-1,.6-3.43,2.16.46,2.27s16.91.86,18.53.65-5.89.27-9.35.27-11.82.07-13.58-.89a2.36,2.36,0,0,1,1.8-1.76A17.11,17.11,0,0,1,83.22,147.2Z" style="fill:#706f6f"/><path d="M112.73,100.88c.15-1.58.19-3.26.19-4.9s0-3.3-.08-4.95c-.12-3.3-.27-6.6-.54-9.86-.11-1.63-.26-3.27-.47-4.83-.06-.39-.12-.77-.2-1.11,0-.19-.09-.32-.13-.47a1,1,0,0,1-.05-.12l-.09-.14a5.1,5.1,0,0,0-.67-.73c-.27-.26-.57-.51-.87-.75-2.47-2-5.23-3.85-7.84-5.92h0l0,0a.37.37,0,0,1-.07-.51l.07-.07a13.52,13.52,0,0,0,4.78-6.73,13,13,0,0,0,.62-4.08,14.16,14.16,0,0,0-.67-4.05,13.23,13.23,0,0,0-4.78-6.48,13,13,0,0,0-3.63-1.82,13.92,13.92,0,0,0-4-.58,12.81,12.81,0,0,0-7.6,2.53,12.52,12.52,0,0,0-2.85,2.9A14.35,14.35,0,0,0,82,51.81a13.1,13.1,0,0,0,.08,8.11,13.45,13.45,0,0,0,4.87,6.63h0a.42.42,0,0,1,.1.58l0,0,0,0a8.63,8.63,0,0,1-2.27,1.54c-.79.39-1.57.75-2.31,1.13a19.23,19.23,0,0,0-4.07,2.75,2.18,2.18,0,0,0-.21.19L78,73a3.12,3.12,0,0,0-.22.39,6.14,6.14,0,0,0-.35,1,16,16,0,0,0-.37,2.41,46.54,46.54,0,0,0-.14,5.06c.08,3.4.29,6.83.62,10.24s.71,6.85,1.33,10.14h0l-.19-.4.44.71c.15.24.22.45.33.67.22.45.39.88.56,1.32.35.88.65,1.75.94,2.63.58,1.76,1.1,3.52,1.6,5.29,1,3.55,1.9,7.08,2.65,10.72.1.46.17.91.25,1.42s0,.94.08,1.44l.14,2.72.33,5.47.71,10.94h0l-1.66.09a.82.82,0,0,0,.3.6.77.77,0,0,0,.28.15l.1,0h.18l-.15,0-.35.13-.74.3c-.49.21-1,.44-1.48.67a29.88,29.88,0,0,0-2.85,1.51c-.22.14-.45.28-.65.43l-.28.22a1.79,1.79,0,0,0-.16.15.35.35,0,0,0,0-.08s0,0,0,0v.16l0,.4,0,.82c-.06,1.09-.09,2.19-.13,3.29l-.2,6.59c0,1.1,0,2.2,0,3.29a4.74,4.74,0,0,0,.22,1.47,2.24,2.24,0,0,0,.31.58.9.9,0,0,0,.38.32h0l-.26-.05c1.94.08,3.89.14,5.83.17s3.89,0,5.83.06,3.89,0,5.83,0,3.89-.09,5.83-.21h0l-.33.09a17,17,0,0,0,3.36-1.65,21.71,21.71,0,0,0,3-2.17,1.5,1.5,0,0,0,.24-.28s0,0,0,0,0,0,0-.06v-1.18l0-1.87,0-3.74c0-2.49-.09-5-.33-7.44a10,10,0,0,0-.3-1.73l-.06-.17,0-.07a.12.12,0,0,0,.06.06l0,0-.14-.07a4.23,4.23,0,0,0-.76-.21,17.1,17.1,0,0,0-3.57-.2h0a.83.83,0,0,1-.85-.8v-.09c.08-3.77.2-7.54.33-11.31l.18-5.65a13.88,13.88,0,0,1,.33-3c.09-.49.23-1,.35-1.42s.26-.93.41-1.38c1.15-3.65,2.66-7.13,4.08-10.64.71-1.75,1.46-3.49,2.13-5.25.34-.88.68-1.76,1-2.64.16-.44.32-.88.45-1.32A11.26,11.26,0,0,0,112.73,100.88Zm1,.14a11.91,11.91,0,0,1-.37,1.45c-.14.47-.3.91-.46,1.36-.32.9-.66,1.78-1,2.67l-2,5.29c-1.34,3.52-2.64,7.08-3.7,10.65q-.21.67-.36,1.34c-.11.45-.23.9-.3,1.34a8.43,8.43,0,0,0-.18,1.3c0,.4,0,.88-.06,1.36l-.13,5.67c-.09,3.78-.17,7.57-.29,11.35l-.85-.89h0a21.2,21.2,0,0,1,3.88.52,5.45,5.45,0,0,1,1,.37,2.71,2.71,0,0,1,.27.16.82.82,0,0,1,.16.11,1.66,1.66,0,0,1,.21.24,2.56,2.56,0,0,1,.16.35l.08.28a13.37,13.37,0,0,1,.23,2c.13,2.54.05,5,0,7.54l-.11,3.75-.07,1.87,0,.94v.23a.79.79,0,0,1-.1.38,2,2,0,0,1-.37.43,27.92,27.92,0,0,1-3.11,2.2,27,27,0,0,0-3,2.26.36.36,0,0,1-.25.09h-.09c-1.94-.12-3.89-.16-5.83-.21s-3.89-.05-5.83,0-3.89,0-5.83.06-3.89.08-5.83.17a.54.54,0,0,1-.26-.05l0,0a2.33,2.33,0,0,1-.79-.82,3.39,3.39,0,0,1-.37-.91,5.94,5.94,0,0,1-.16-1.79c0-1.11.07-2.2.08-3.3l.06-6.6,0-3.3v-1.5a1.12,1.12,0,0,1,0-.16,1,1,0,0,1,.1-.27,2,2,0,0,1,.39-.47c.12-.11.24-.21.36-.3s.47-.35.71-.51c.95-.63,1.91-1.18,2.89-1.72.49-.27,1-.53,1.48-.78l.77-.37.41-.18.24-.09.18,0,.18,0H86l.12,0a.9.9,0,0,1,.31.16.88.88,0,0,1,.31.62v0a.83.83,0,0,1-1.66.05h0l-.86-10.94-.41-5.47-.18-2.75c0-.42,0-1-.08-1.3s-.14-.84-.23-1.27c-.74-3.52-1.67-7.06-2.65-10.56-.5-1.75-1-3.49-1.59-5.2-.28-.86-.58-1.71-.91-2.53-.16-.41-.32-.83-.51-1.2-.09-.18-.18-.41-.27-.55l-.28-.46L77,103a.93.93,0,0,1-.11-.27h0c-.41-1.74-.67-3.46-.93-5.19s-.46-3.45-.63-5.18c-.33-3.46-.59-6.94-.57-10.44A48.55,48.55,0,0,1,75,76.57a17.92,17.92,0,0,1,.48-2.7,8,8,0,0,1,.5-1.4,4.85,4.85,0,0,1,.44-.72l.33-.36a2.88,2.88,0,0,1,.28-.24,16.9,16.9,0,0,1,4.67-2.73c.83-.33,1.67-.59,2.47-.86a9.45,9.45,0,0,0,2.24-1l0,.66h0a14.08,14.08,0,0,1-5.64-6.88,14.49,14.49,0,0,1-.36-9,14.28,14.28,0,0,1,5.15-7.46,14.55,14.55,0,0,1,8.61-3,15.55,15.55,0,0,1,4.56.72,14.67,14.67,0,0,1,4.09,2.12,13.83,13.83,0,0,1,3.22,3.27,14.11,14.11,0,0,1,2,4.11,15.6,15.6,0,0,1,.6,4.52,13.91,13.91,0,0,1-6.37,11.39l0-.6h0a39.64,39.64,0,0,1,8.9,4.73c.35.27.69.54,1,.84a7.26,7.26,0,0,1,1,1.08,4.55,4.55,0,0,1,.25.38c.07.15.14.3.2.45a7.25,7.25,0,0,1,.2.73c.11.46.18.89.24,1.33a47.41,47.41,0,0,1,.36,5.06c0,3.34,0,6.66-.17,10l-.24,5C114,97.68,114,99.31,113.74,101Z" style="fill:#3c3c3b"/><path d="M99,82.54c-.62,6.16-5.58,7.71-8.75,7.24a104.74,104.74,0,0,1-10.92-3l.58-21.08s10.66,5.4,13.92,7.17S99.52,77.53,99,82.54Z" style="fill:url(#Sfumatura_senza_nome_171)"/><path d="M99.91,82.63a11.49,11.49,0,0,1-.83,3.17,8.29,8.29,0,0,1-2,2.72A8.41,8.41,0,0,1,91,90.62a17.15,17.15,0,0,1-3.1-.61c-1-.27-2-.55-2.92-.85-1.92-.63-3.83-1.27-5.72-2h0a.4.4,0,0,1-.26-.38l.48-21.08h0a.5.5,0,0,1,.71-.44h0c4.14,1.93,8.24,4,12.34,6a23.26,23.26,0,0,1,3.09,1.68,10.69,10.69,0,0,1,2.66,2.58,9.47,9.47,0,0,1,1.5,3.44A12.17,12.17,0,0,1,99.91,82.63Zm-1.8-.18a8.56,8.56,0,0,0-1.31-5.93,9,9,0,0,0-2.21-2.17,30.29,30.29,0,0,0-2.89-1.65c-4-2.14-8-4.3-12-6.55l.73-.43h0l-.69,21.08-.27-.39h0c1.94.51,3.87,1.06,5.82,1.53,1,.25,1.94.49,2.91.7a16,16,0,0,0,2.83.44A7.11,7.11,0,0,0,96,87.27a6.56,6.56,0,0,0,1.5-2.17A9.75,9.75,0,0,0,98.12,82.45Z" style="fill:#3c3c3b"/><path d="M79.76,92.53C80.51,87.28,80.85,55,78.6,51c-1.4-2.49-9.35-7.48-15.93-11.19A21.12,21.12,0,1,0,38.87,40c-3,2.54-8.16,2.65-14.23,8-5,4.38-1.37,37.87.63,46.87,3.25,4.25,10.25,32.25,10.25,35s2.08,31,2.08,31c0-.47-10.86,4.85-11.08,6.25-.13.78-.5,20.94-.5,23,0,3.5,1.75,4.25,1.75,4.25h36s10.17-5.92,10.17-7.17.92-24.58-.83-25.83-7.58-1.25-7.58-1.25.75-19.5.75-27.5S79,97.78,79.76,92.53Z" style="fill:#c6c6c6"/><path d="M53.76,46.53c-8.42-2.5-9.42-5.25-11-6.73C20.1,13.22,58.82,2.43,51.7,2.24c-11.87-.31-21.81,7.83-21.81,19.5a23.83,23.83,0,0,0,9,18.29c-2.17,3.67-7.6,3.09-13.66,8.4-5,4.38-1.81,37.44.19,46.44,3.25,4.25,10.25,32.25,10.25,35s2.87,31.58,2.87,31.58c0-.47-11.56,5.29-11.56,5.29-.13.78-.94,21.31-.94,23.38a4.1,4.1,0,0,0,3.19,4.13h9.44S26.93,171.87,32.85,167c1.67-1.36,7.1-5,7.1-5s7.87-21.75,6.48-29.62c-2.5-14.17,7.83-39.17,9.67-61.83C56.47,66,54.83,46.85,53.76,46.53Z" style="fill:#9d9d9c"/><path d="M31.58,16.12c.49-.68-.62,4.44.6,8.83,1.14,4.08,6.67,14.17,8.75,15.13-1.08,1.5-5.42,4.12-7.21,3.54-1.29-.42,7.71-3.12,2.38-5.5-1.2-.54-6.5-9.33-6.25-11.5S30.49,17.62,31.58,16.12Z" style="fill:#706f6f"/><path d="M72.45,161.8s-5.31,5.94-7.94,6.69-32.94.06-33.87-.12,7.06-6.31,9-6.5c.4,0-4.58,3.54-2.31,3.44,5-.23,17.9,0,24.37,0C66.59,165.33,71.88,161.25,72.45,161.8Z" style="fill:#9d9d9c"/><path d="M27.26,167.43c.19,1.81.94,17.69,2.88,22.06,1.22,2.76,3.63,4.44,7.31,4.19-2.25.69-8.25.56-8.25.56s-1.94-.06-2.5-1-.56-4.5-.5-5.44S27.11,166,27.26,167.43Z" style="fill:#706f6f"/><path d="M23.39,61.49c1.2-3.87,26.27.54,29.21,3-3.42,15.25-10.82,21-13.42,29.83-4.37,14.91,3.58,36.17,3.42,38.92-.26,4.25-2.08,26.83-3.46,28-2.06.81-2.31-5.31-2.44-9.31s-1.12-17.56-1.81-23.37-7.12-31.63-9.62-33.69C24.64,91.74,22.58,64.12,23.39,61.49Z" style="fill:#706f6f"/><path d="M33.48,163.86c-1.54.92-5.29,3.34.71,3.5s26.08,1.33,28.58,1-9.08.42-14.42.42-18.23.1-20.95-1.36c.36-1.8,1.7-2.3,2.78-2.72A26.38,26.38,0,0,1,33.48,163.86Z" style="fill:#706f6f"/><path d="M79,92.42c.23-2.44.3-5,.3-7.55s0-5.09-.13-7.63C79,72.15,78.74,67.06,78.33,62c-.17-2.51-.4-5-.73-7.45-.09-.6-.19-1.2-.32-1.72-.06-.29-.14-.49-.2-.72A1.48,1.48,0,0,1,77,52c0-.06-.09-.14-.13-.21a7.87,7.87,0,0,0-1-1.13c-.42-.39-.88-.78-1.35-1.16-3.81-3.09-8.07-5.94-12.09-9.13h0l0,0a.57.57,0,0,1-.1-.79l.1-.1A20.84,20.84,0,0,0,69.73,29a20.12,20.12,0,0,0,1-6.29,21.84,21.84,0,0,0-1-6.25,20.41,20.41,0,0,0-7.38-10,20,20,0,0,0-5.6-2.81,21.47,21.47,0,0,0-6.19-.9A19.75,19.75,0,0,0,38.78,6.65a19.31,19.31,0,0,0-4.39,4.48,22.14,22.14,0,0,0-2.81,5.62,20.21,20.21,0,0,0,.12,12.51A20.74,20.74,0,0,0,39.21,39.5h0a.64.64,0,0,1,.16.89l-.06.08,0,0a13.31,13.31,0,0,1-3.51,2.37c-1.22.61-2.41,1.16-3.56,1.74a29.66,29.66,0,0,0-6.28,4.24,3.37,3.37,0,0,0-.32.29,1.4,1.4,0,0,1-.16.19,4.81,4.81,0,0,0-.34.59,9.47,9.47,0,0,0-.53,1.61A24.67,24.67,0,0,0,24,55.27a71.78,71.78,0,0,0-.22,7.8c.12,5.25.44,10.53,1,15.79s1.1,10.56,2.05,15.64v0l-.29-.61L27.19,95c.22.37.34.69.51,1,.34.69.6,1.36.86,2,.53,1.36,1,2.71,1.45,4.06.9,2.71,1.69,5.43,2.47,8.16,1.52,5.47,2.93,10.92,4.09,16.53.15.71.27,1.41.38,2.2.12,1,.07,1.46.12,2.21l.22,4.2.51,8.43,1.09,16.87v0l-2.55.14a1.26,1.26,0,0,0,.46.93,1.19,1.19,0,0,0,.44.23l.16,0h.28l-.23.07-.54.2-1.14.46c-.76.33-1.52.67-2.28,1a46.08,46.08,0,0,0-4.4,2.33c-.35.21-.69.43-1,.66-.16.11-.31.23-.43.34a2.76,2.76,0,0,0-.24.23.54.54,0,0,0,0-.12s0,.05,0,.07l0,.25,0,.62-.07,1.26c-.09,1.69-.14,3.38-.2,5.07l-.31,10.16c0,1.69-.06,3.39,0,5.08a7.31,7.31,0,0,0,.34,2.26,3.45,3.45,0,0,0,.48.89,1.39,1.39,0,0,0,.59.49h0l-.39-.08c3,.13,6,.21,9,.26s6,.07,9,.1,6,0,9,0,6-.14,9-.32h0l-.5.14A26.26,26.26,0,0,0,68.44,191,33.48,33.48,0,0,0,73,187.61a2.31,2.31,0,0,0,.37-.43s0-.06,0,0,0,0,0-.09v-.37l0-1.45,0-2.89,0-5.77c-.05-3.84-.14-7.7-.5-11.47a15.37,15.37,0,0,0-.46-2.67l-.09-.26a.93.93,0,0,1-.06-.11.19.19,0,0,0,.09.1l-.06,0a2.1,2.1,0,0,0-.21-.1,6.52,6.52,0,0,0-1.17-.33,26.37,26.37,0,0,0-5.5-.31h0a1.27,1.27,0,0,1-1.32-1.23v-.14c.13-5.81.32-11.63.5-17.44l.27-8.72a21.4,21.4,0,0,1,.51-4.57c.14-.76.35-1.47.55-2.19s.4-1.44.63-2.13c1.78-5.64,4.1-11,6.29-16.4,1.1-2.7,2.26-5.38,3.29-8.09.53-1.35,1-2.71,1.53-4.07.24-.68.49-1.36.69-2A17.37,17.37,0,0,0,79,92.42Zm1.56.22A18.36,18.36,0,0,1,80,94.88c-.21.72-.46,1.41-.71,2.1-.49,1.39-1,2.75-1.54,4.11l-3.14,8.16c-2.07,5.44-4.08,10.91-5.7,16.42q-.32,1-.56,2.07c-.17.69-.36,1.38-.46,2.06a13,13,0,0,0-.28,2c-.06.62-.08,1.35-.09,2.09l-.2,8.75c-.13,5.83-.26,11.67-.45,17.5l-1.32-1.37h0a32.69,32.69,0,0,1,6,.8,8.4,8.4,0,0,1,1.57.57,4.18,4.18,0,0,1,.42.25,1.27,1.27,0,0,1,.24.18,2.56,2.56,0,0,1,.32.37,4,4,0,0,1,.25.54l.12.43a20.62,20.62,0,0,1,.36,3c.2,3.92.08,7.77,0,11.64l-.17,5.79-.11,2.89-.06,1.44v.35a1.21,1.21,0,0,1-.16.59,3.13,3.13,0,0,1-.57.66,43.06,43.06,0,0,1-4.79,3.39,41.6,41.6,0,0,0-4.68,3.49.55.55,0,0,1-.39.14h-.14c-3-.18-6-.25-9-.32s-6-.08-9,0-6,0-9,.1-6,.13-9,.26a.84.84,0,0,1-.39-.08l-.08,0A3.59,3.59,0,0,1,26.08,194a5.22,5.22,0,0,1-.57-1.41,9.16,9.16,0,0,1-.25-2.77c.07-1.71.1-3.39.13-5.09l.09-10.17.05-5.09v-1.92l0-.38a1.73,1.73,0,0,1,0-.24,1.46,1.46,0,0,1,.16-.42,3.07,3.07,0,0,1,.6-.72c.19-.17.37-.32.55-.47.36-.28.73-.54,1.09-.78,1.46-1,2.95-1.82,4.45-2.66.75-.41,1.51-.82,2.29-1.21.39-.19.78-.39,1.19-.57l.64-.27.38-.14.28-.07a1.7,1.7,0,0,1,.28,0h.25l.18,0a1.38,1.38,0,0,1,.47.24,1.35,1.35,0,0,1,.48,1v.06a1.28,1.28,0,0,1-2.55.08v0L35,144.08l-.63-8.44-.28-4.24c-.05-.65-.05-1.62-.12-2-.09-.6-.21-1.29-.35-2C32.47,122,31,116.53,29.51,111.15c-.77-2.69-1.57-5.38-2.46-8-.44-1.32-.9-2.63-1.4-3.9-.25-.64-.5-1.27-.79-1.85-.14-.28-.27-.63-.42-.85L24,95.82l-.12-.2a1.44,1.44,0,0,1-.17-.42v0c-.63-2.69-1-5.33-1.43-8s-.71-5.32-1-8c-.5-5.34-.91-10.7-.88-16.1a74.88,74.88,0,0,1,.39-8.16,27.64,27.64,0,0,1,.74-4.16,12.37,12.37,0,0,1,.78-2.16A7.47,7.47,0,0,1,23,47.5c.16-.19.33-.38.51-.56a4.45,4.45,0,0,1,.43-.37,26.06,26.06,0,0,1,7.21-4.22c1.28-.51,2.57-.91,3.82-1.32a14.57,14.57,0,0,0,3.45-1.49l.06,1h0A21.71,21.71,0,0,1,29.8,29.94a22.34,22.34,0,0,1-.55-13.88A22,22,0,0,1,37.2,4.55,22.44,22.44,0,0,1,50.47,0a24,24,0,0,1,7,1.11,22.63,22.63,0,0,1,6.3,3.26,21.33,21.33,0,0,1,5,5,21.76,21.76,0,0,1,3.12,6.34,24.06,24.06,0,0,1,.92,7A21.45,21.45,0,0,1,63,40.3l0-.93h0a61.13,61.13,0,0,1,13.72,7.3c.53.41,1.06.83,1.59,1.29a11.19,11.19,0,0,1,1.58,1.66,7,7,0,0,1,.39.59c.11.23.22.47.3.69A11.18,11.18,0,0,1,80.85,52c.17.72.27,1.38.36,2a73.12,73.12,0,0,1,.55,7.8c.07,5.15,0,10.27-.27,15.39l-.37,7.67C80.95,87.49,80.89,90,80.55,92.64Z" style="fill:#3c3c3b"/><path d="M51.26,62.62c-1,11.12-10.33,12.5-16,11.67S.76,64.45.76,64.45v-38s34.83,17,40.67,20.17S52.07,53.65,51.26,62.62Z" style="fill:url(#Sfumatura_senza_nome_36)"/><path d="M52.82,62.76a15.62,15.62,0,0,1-2.6,7.58,12.65,12.65,0,0,1-6.59,4.75,18.57,18.57,0,0,1-7.84.69A51.37,51.37,0,0,1,28.47,74c-4.71-1.36-9.37-2.81-14-4.29s-9.27-3-13.87-4.68h0a.64.64,0,0,1-.44-.61c0-6.33,0-12.67,0-19s0-12.67-.14-19H0a.76.76,0,0,1,1.07-.7h0C6.09,28,11,30.33,16,32.62l14.81,7.06c2.47,1.18,4.93,2.37,7.37,3.61a67.16,67.16,0,0,1,7.34,4.06,16.69,16.69,0,0,1,6,6.61A17.43,17.43,0,0,1,52.82,62.76Zm-3.11-.28a14.37,14.37,0,0,0-1-7.24,13.68,13.68,0,0,0-4.88-5.42,64.91,64.91,0,0,0-7-3.91l-7.29-3.73L15,34.71c-4.84-2.53-9.72-5-14.55-7.58l1.1-.69h0c-.09,6.33-.09,12.67-.14,19s0,12.67,0,19L1,63.83H1l14.11,3.85c4.69,1.3,9.39,2.6,14.09,3.79,1.18.3,2.35.58,3.52.85a29,29,0,0,0,3.41.64,15.71,15.71,0,0,0,6.61-.65,9.65,9.65,0,0,0,5-3.69A12.58,12.58,0,0,0,49.71,62.48Z" style="fill:#3c3c3b"/></g></g></svg>